<?xml version="1.0" encoding="UTF-8"?>
<svg version="1.1" xmlns="http://www.w3.org/2000/svg" width="920" height="920">
<path d="M0 0 C4.05961619 0.0000807 8.11911817 -0.00678659 12.17871094 -0.02050781 C33.57710858 -0.09155814 54.93425724 0.0490989 76.31201172 1.06420898 C77.15867905 1.10262217 78.00534637 1.14103535 78.87767029 1.18061256 C105.18724837 2.40893724 130.06262056 9.35387046 153.63232422 21.18530273 C154.76541016 21.72799805 155.89849609 22.27069336 157.06591797 22.82983398 C165.15650211 26.75549529 173.32362791 30.90410191 180.63232422 36.18530273 C180.63232422 36.84530273 180.63232422 37.50530273 180.63232422 38.18530273 C181.29232422 38.39155273 181.95232422 38.59780273 182.63232422 38.81030273 C186.70412608 40.67654526 190.3202942 43.160918 193.63232422 46.18530273 C193.63232422 46.84530273 193.63232422 47.50530273 193.63232422 48.18530273 C194.22271484 48.45858398 194.81310547 48.73186523 195.42138672 49.01342773 C206.78748228 55.03786001 219.89307131 69.34169278 226.63232422 80.18530273 C226.63232422 80.84530273 226.63232422 81.50530273 226.63232422 82.18530273 C227.29232422 82.18530273 227.95232422 82.18530273 228.63232422 82.18530273 C231.63232422 86.56991812 231.63232422 86.56991812 231.63232422 89.18530273 C232.29232422 89.18530273 232.95232422 89.18530273 233.63232422 89.18530273 C238.18380969 94.61418299 241.19171274 101.13965195 244.25732422 107.47045898 C245.63170236 110.32777244 245.63170236 110.32777244 247.75732422 113.31030273 C249.85159592 116.52151934 251.14825927 119.67885464 252.50732422 123.25170898 C253.30642455 125.33547408 254.14391656 127.40469471 255.00732422 129.46264648 C258.02699027 136.70512679 260.61608723 143.983438 262.88232422 151.49780273 C263.12837402 152.30910645 263.37442383 153.12041016 263.62792969 153.95629883 C266.93619824 165.20075888 268.15776231 176.17257349 268.7411499 187.83644104 C268.78309297 188.63981518 268.82503603 189.44318932 268.8682501 190.27090812 C269.80779497 208.5345121 269.92055197 226.77987619 269.89377356 245.06353891 C269.88914189 249.77054961 269.89628438 254.47754721 269.9017334 259.18455505 C269.91051804 268.34906379 269.90875498 277.51353934 269.90290812 286.67804926 C269.89834754 294.14251674 269.89779744 301.60697508 269.89995575 309.07144356 C269.90026222 310.14340057 269.90056868 311.21535758 269.90088443 312.31979813 C269.90152404 314.49906758 269.90217247 316.67833703 269.90282962 318.85760648 C269.90850096 339.18124691 269.90202578 359.50486915 269.89122888 379.8285066 C269.8822976 397.17588198 269.8838482 414.52323057 269.89306641 431.87060547 C269.90382825 452.13168275 269.9079506 472.39274417 269.90184188 492.65382391 C269.90120494 494.82433132 269.9005762 496.99483873 269.89995575 499.16534615 C269.8996472 500.23261576 269.89933865 501.29988538 269.89902075 502.39949651 C269.89731134 509.83355946 269.90017049 517.26761215 269.90491486 524.70167351 C269.91059008 533.7920607 269.90887067 542.88241348 269.89835337 551.97279685 C269.893184 556.58931327 269.89088533 561.20577283 269.89765167 565.82228851 C269.92201232 584.12462068 269.69196553 602.38415435 268.8036499 620.66725159 C268.75179765 621.82911292 268.75179765 621.82911292 268.69889787 623.01444619 C268.03355809 637.48850439 266.02417692 651.38431157 261.19482422 665.12280273 C260.76459961 666.40380859 260.76459961 666.40380859 260.32568359 667.71069336 C257.45554806 676.10376231 253.78676257 684.0738907 249.81982422 691.99780273 C249.47653076 692.68358398 249.1332373 693.36936523 248.77954102 694.07592773 C245.64821015 700.26511447 242.22930576 706.25466976 238.63232422 712.18530273 C238.14505859 713.01545898 237.65779297 713.84561523 237.15576172 714.70092773 C236.04069823 716.56588772 234.84561354 718.38270146 233.63232422 720.18530273 C232.97232422 720.18530273 232.31232422 720.18530273 231.63232422 720.18530273 C231.63232422 721.17530273 231.63232422 722.16530273 231.63232422 723.18530273 C230.97232422 723.18530273 230.31232422 723.18530273 229.63232422 723.18530273 C229.38482422 723.90717773 229.13732422 724.62905273 228.88232422 725.37280273 C227.5096283 728.46136855 225.90879126 730.69541691 223.63232422 733.18530273 C222.97232422 733.18530273 222.31232422 733.18530273 221.63232422 733.18530273 C221.41189453 733.7228418 221.19146484 734.26038086 220.96435547 734.81420898 C219.18181119 737.98724236 216.79640912 740.48834788 214.31982422 743.12280273 C213.84609375 743.63520508 213.37236328 744.14760742 212.88427734 744.67553711 C211.47794554 746.18960432 210.05787799 747.689339 208.63232422 749.18530273 C207.73126953 750.1353418 206.83021484 751.08538086 205.90185547 752.06420898 C203.63232422 754.18530273 203.63232422 754.18530273 201.63232422 754.18530273 C201.63232422 754.84530273 201.63232422 755.50530273 201.63232422 756.18530273 C196.15613374 761.18530273 196.15613374 761.18530273 193.63232422 761.18530273 C193.63232422 761.84530273 193.63232422 762.50530273 193.63232422 763.18530273 C191.37854212 765.28221001 188.81182389 767.00709268 186.31982422 768.81030273 C185.62953125 769.32592773 184.93923828 769.84155273 184.22802734 770.37280273 C183.5609375 770.86006836 182.89384766 771.34733398 182.20654297 771.84936523 C181.28748169 772.52153076 181.28748169 772.52153076 180.34985352 773.20727539 C178.63232422 774.18530273 178.63232422 774.18530273 175.63232422 774.18530273 C175.63232422 774.84530273 175.63232422 775.50530273 175.63232422 776.18530273 C161.58990282 786.42857588 145.35722024 793.0275672 128.96948242 798.41650391 C127.39026767 798.93598027 125.8133133 799.4623715 124.23852539 799.99511719 C120.12686557 801.38597072 116.0334356 802.69289287 111.81982422 803.74780273 C110.47984375 804.09004883 110.47984375 804.09004883 109.11279297 804.43920898 C98.14057596 806.79127795 87.27266438 807.77099611 76.08935547 808.29467773 C75.22598886 808.33654961 74.36262226 808.37842148 73.47309303 808.42156219 C49.34708634 809.55963116 25.20020078 809.48935917 1.05297852 809.44604492 C-5.48879829 809.43442598 -12.03041495 809.44138707 -18.57218647 809.45318985 C-23.66010266 809.46038942 -28.74798015 809.45813318 -33.83589745 809.45293427 C-36.25246386 809.45160399 -38.66903382 809.45322358 -41.08559608 809.45789337 C-44.42361616 809.46295121 -47.76136548 809.45526905 -51.09936523 809.4440918 C-52.08655548 809.44814026 -53.07374573 809.45218872 -54.09085083 809.45635986 C-55.44904182 809.44790039 -55.44904182 809.44790039 -56.83467102 809.43927002 C-57.61840749 809.43851597 -58.40214396 809.43776192 -59.20963001 809.43698502 C-61.69710045 809.14688355 -63.2772357 808.56189545 -65.36767578 807.18530273 C-66.4053454 804.07229388 -66.566799 801.71598687 -66.67961776 798.44617581 C-66.72093791 797.26684139 -66.76225805 796.08750697 -66.80483032 794.87243514 C-66.84357528 793.58872698 -66.88232025 792.30501883 -66.9222393 790.98241043 C-66.94321439 790.31757482 -66.96418947 789.65273921 -66.98580016 788.96775707 C-67.44735124 774.18454456 -67.51065674 759.40341476 -67.49614334 744.61390382 C-67.49355136 740.80199828 -67.49688783 736.9900964 -67.49938667 733.17819142 C-67.50296033 726.53112358 -67.50291259 719.88406389 -67.50033951 713.2369957 C-67.4965236 703.35201207 -67.49850789 693.4670352 -67.50154782 683.5820516 C-67.50678854 665.91849244 -67.50636726 648.25493691 -67.5034689 630.5913774 C-67.50094548 615.13545452 -67.5003003 599.67953297 -67.50149155 584.22360992 C-67.50156793 583.19523066 -67.50164432 582.16685139 -67.50172302 581.10730912 C-67.50203439 576.93199813 -67.5023528 572.75668714 -67.50268278 568.58137616 C-67.50573603 529.48142474 -67.5029773 490.38147563 -67.49758588 451.28152457 C-67.4928395 416.59580356 -67.49326677 381.91008622 -67.49804688 347.22436523 C-67.50340891 308.18626895 -67.50552084 269.1481747 -67.50243461 230.1100781 C-67.50211393 225.94396289 -67.50180109 221.77784769 -67.50149155 217.61173248 C-67.50141247 216.58605023 -67.50133339 215.56036798 -67.50125192 214.50360445 C-67.50011764 199.06023068 -67.50143871 183.61685838 -67.5039711 168.1734848 C-67.50683772 150.60508109 -67.50609981 133.03668157 -67.50069036 115.46827838 C-67.49776739 105.6532991 -67.49754302 95.8383289 -67.50133653 86.02334987 C-67.50359597 79.44883726 -67.50215291 72.87433184 -67.49783176 66.29982029 C-67.49547697 62.56660784 -67.49458855 58.83341327 -67.49823774 55.10020146 C-67.51429264 37.4393425 -67.20538046 19.82802757 -66.36767578 2.18530273 C-62.76055335 0.38174152 -58.56437088 0.7874286 -54.58642578 0.63452148 C-53.5040564 0.59268234 -52.42168701 0.5508432 -51.30651855 0.50773621 C-34.21183227 -0.0693042 -17.10231212 -0.00177792 0 0 Z M40.63232422 383.18530273 C39.96072266 383.72670898 39.28912109 384.26811523 38.59716797 384.82592773 C24.67158816 396.30983555 15.08995089 413.28839803 12.63232422 431.18530273 C12.3351709 436.00122374 12.30738487 440.79882283 12.31982422 445.62280273 C12.30371094 446.86868164 12.28759766 448.11456055 12.27099609 449.39819336 C12.25932266 471.63607547 22.36675392 488.83397081 37.63232422 504.18530273 C41.13090246 507.78882911 41.13090246 507.78882911 45.63232422 509.18530273 C45.63232422 509.84530273 45.63232422 510.50530273 45.63232422 511.18530273 C59.28916478 519.23782427 72.68876044 525.17951717 88.63232422 526.18530273 C89.48826172 526.25491211 90.34419922 526.32452148 91.22607422 526.39624023 C110.69177458 527.23975392 131.17117596 518.97172243 145.63232422 506.18530273 C145.63232422 505.52530273 145.63232422 504.86530273 145.63232422 504.18530273 C146.22529297 503.92749023 146.81826172 503.66967773 147.42919922 503.40405273 C149.80893387 502.08760378 151.14211214 500.75949491 152.88232422 498.68530273 C153.40310547 498.07686523 153.92388672 497.46842773 154.46044922 496.84155273 C155.82485419 495.25134453 155.82485419 495.25134453 155.63232422 493.18530273 C156.29232422 493.18530273 156.95232422 493.18530273 157.63232422 493.18530273 C171.1913241 474.49694513 175.17444537 452.80833185 172.01513672 430.20092773 C169.05923117 412.69746801 160.5469463 398.36194641 147.63232422 386.18530273 C147.07544922 385.58717773 146.51857422 384.98905273 145.94482422 384.37280273 C144.68014151 382.96166496 144.68014151 382.96166496 142.63232422 383.18530273 C142.63232422 382.52530273 142.63232422 381.86530273 142.63232422 381.18530273 C140.5940941 379.77972969 138.57455516 378.49990992 136.44482422 377.24780273 C135.86667969 376.90040039 135.28853516 376.55299805 134.69287109 376.19506836 C133.00991579 375.18529518 131.32119014 374.18515888 129.63232422 373.18530273 C128.82537109 372.6606543 128.01841797 372.13600586 127.18701172 371.59545898 C100.17884118 356.68727922 63.10593161 363.47002542 40.63232422 383.18530273 Z " fill="#FFFFFF" transform="translate(593.36767578125,53.814697265625)"/>
<path d="M0 0 C3.114436 -0.0020418 6.22886598 -0.00579511 9.34329987 -0.00990677 C67.98388213 -0.07733641 67.98388213 -0.07733641 81.39792633 2.12293625 C83.25764545 7.68473662 83.73139155 12.65340757 83.8074398 18.49698448 C83.82649732 19.42561616 83.84555484 20.35424785 83.86518987 21.31101988 C83.92548681 24.43285597 83.97078532 27.55469464 84.01483917 30.67679977 C84.05274069 32.94657026 84.09073914 35.21633913 84.12882602 37.48610651 C84.57393668 65.94207588 84.54127828 94.40239518 84.52959587 122.86104115 C84.52631026 131.35780993 84.52904032 139.85457473 84.53179836 148.35134332 C84.53700797 164.98288888 84.5366308 181.61443056 84.53371945 198.24597647 C84.53118676 212.78830317 84.53055511 227.33062845 84.5317421 241.87295532 C84.53185667 243.32952505 84.53185667 243.32952505 84.53197357 244.81552044 C84.53228498 248.75876216 84.53260339 252.70200388 84.53293333 256.6452456 C84.53597872 293.48213822 84.53323965 330.31902839 84.52783643 367.15592063 C84.52308403 399.80426959 84.52352398 432.45261466 84.52829742 465.10096359 C84.53366157 501.91107322 84.53577082 538.72118069 84.53268516 575.53129065 C84.5323645 579.4598151 84.53205166 583.38833956 84.5317421 587.31686401 C84.53166302 588.28394147 84.53158394 589.25101892 84.53150247 590.24740175 C84.53036974 604.7873589 84.53168619 619.32731449 84.53422165 633.86727142 C84.53709032 650.3989966 84.53634569 666.93071734 84.53094091 683.46244197 C84.52802274 692.69034694 84.52778657 701.91824228 84.53158708 711.14614698 C84.5338521 717.33241715 84.53239373 723.51867969 84.52808231 729.70494874 C84.52573523 733.21358416 84.52482216 736.72220063 84.52848829 740.23083536 C84.53977659 754.0981087 84.41509161 767.94668771 83.95248985 781.80710411 C83.89437241 783.57089255 83.89437241 783.57089255 83.83508087 785.37031307 C83.71485198 788.62295381 83.56231835 791.87226075 83.39792633 795.12293625 C83.35927747 796.17956142 83.32062862 797.23618658 83.28080858 798.3248307 C83.22551957 799.31659457 83.17023055 800.30835844 83.11326611 801.33017576 C83.07186393 802.20775555 83.03046175 803.08533535 82.98780496 803.98950847 C82.39792633 806.12293625 82.39792633 806.12293625 80.47779553 807.39688919 C73.72139652 809.75543348 66.04964394 809.26778095 58.98361969 809.25233078 C57.97881278 809.25405761 56.97400587 809.25578444 55.93875027 809.25756359 C52.62173998 809.2618904 49.30478097 809.25897499 45.98777008 809.25574875 C43.64061212 809.25680618 41.29345428 809.25819112 38.94629669 809.25988388 C32.6974428 809.26267608 26.44861459 809.25832368 20.19976425 809.25170898 C16.33587614 809.24793669 12.47199045 809.24587216 8.60810089 809.24424362 C-25.40580703 809.22727095 -59.40985198 809.16269088 -93.41359711 808.25526047 C-97.69630528 808.14196819 -101.97896659 808.05646949 -106.26251984 807.98260117 C-109.3655813 807.92761227 -112.46832837 807.86146894 -115.57109833 807.79209518 C-117.51934801 807.75099958 -119.46781972 807.72082947 -121.41628265 807.69153976 C-132.96666518 807.38525193 -144.13235184 805.14354987 -155.16457367 801.74793625 C-155.87017426 801.53443527 -156.57577484 801.3209343 -157.30275726 801.10096359 C-189.03388132 791.37103736 -221.80617266 774.75392768 -244.60207367 750.12293625 C-244.60207367 749.46293625 -244.60207367 748.80293625 -244.60207367 748.12293625 C-245.17055023 747.87930344 -245.73902679 747.63567062 -246.32472992 747.384655 C-253.09488852 743.63377811 -258.51495513 736.58322039 -262.60207367 730.12293625 C-262.60207367 729.46293625 -262.60207367 728.80293625 -262.60207367 728.12293625 C-263.59207367 727.79293625 -264.58207367 727.46293625 -265.60207367 727.12293625 C-267.29510969 724.88232739 -268.83746447 722.66687835 -270.35207367 720.31043625 C-270.79454437 719.63335617 -271.23701508 718.95627609 -271.69289398 718.25867844 C-275.53654953 712.33013938 -279.13824098 706.28086103 -282.60207367 700.12293625 C-283.11383148 699.25668625 -283.62558929 698.39043625 -284.15285492 697.49793625 C-288.31917208 690.26340103 -291.13253346 682.73844839 -293.9424057 674.91053391 C-294.77436477 672.65605416 -295.71532037 670.45523609 -296.66457367 668.24793625 C-305.03410532 647.28923407 -307.04135904 625.20284963 -307.10939789 602.84119797 C-307.12612479 600.77535335 -307.14400366 598.7095178 -307.16291428 596.64369202 C-307.21044718 591.01120457 -307.23940138 585.37876139 -307.26436853 579.74613428 C-307.28805562 574.88616759 -307.32219735 570.02629285 -307.35590208 565.16638696 C-307.78098557 503.18906942 -307.75486571 441.20848151 -307.73153767 379.23004076 C-307.72699932 366.96565768 -307.72790271 354.70128404 -307.73244476 342.43690109 C-307.73783144 327.88674069 -307.7398897 313.33658578 -307.7368325 298.78642452 C-307.73651417 297.23109301 -307.73619979 295.6757615 -307.73588943 294.12042999 C-307.73573516 293.35666085 -307.73558088 292.5928917 -307.73542193 291.80597804 C-307.73457425 286.53773943 -307.73600025 281.26950452 -307.73836899 276.00126648 C-307.76033238 222.18632522 -307.76033238 222.18632522 -307.17189789 201.93885422 C-307.13527102 200.65616213 -307.09864414 199.37347004 -307.06090736 198.05190849 C-306.09934779 170.30355757 -299.65769621 144.12062417 -287.60207367 119.12293625 C-287.10191742 118.05945969 -286.60176117 116.99598312 -286.08644867 115.90028 C-279.73302322 102.73325108 -272.17800605 88.39669913 -261.60207367 78.12293625 C-259.75093765 75.7641047 -257.96953357 73.36272913 -256.18801117 70.95106125 C-255.66465179 70.34778 -255.14129242 69.74449875 -254.60207367 69.12293625 C-253.94207367 69.12293625 -253.28207367 69.12293625 -252.60207367 69.12293625 C-252.33394867 68.48356125 -252.06582367 67.84418625 -251.78957367 67.18543625 C-250.60207367 65.12293625 -250.60207367 65.12293625 -247.60207367 64.12293625 C-247.27207367 63.13293625 -246.94207367 62.14293625 -246.60207367 61.12293625 C-245.94207367 61.12293625 -245.28207367 61.12293625 -244.60207367 61.12293625 C-244.33394867 60.48356125 -244.06582367 59.84418625 -243.78957367 59.18543625 C-242.60207367 57.12293625 -242.60207367 57.12293625 -239.60207367 56.12293625 C-239.30301117 55.519655 -239.00394867 54.91637375 -238.69582367 54.29481125 C-237.299615 51.52233976 -235.56295951 50.24257029 -233.10207367 48.37293625 C-232.30801117 47.7593425 -231.51394867 47.14574875 -230.69582367 46.51356125 C-228.60207367 45.12293625 -228.60207367 45.12293625 -226.60207367 45.12293625 C-226.60207367 44.46293625 -226.60207367 43.80293625 -226.60207367 43.12293625 C-224.40462999 41.48777069 -222.21257466 39.98029303 -219.91457367 38.49793625 C-219.2333847 38.05280685 -218.55219574 37.60767746 -217.85036469 37.1490593 C-215.77331351 35.79792555 -213.68885589 34.45897971 -211.60207367 33.12293625 C-211.02102875 32.74765793 -210.43998383 32.37237961 -209.84133148 31.98572922 C-199.1728231 25.11831431 -188.19055436 19.12946732 -176.15676117 15.01356125 C-173.71392022 14.16192862 -171.35794987 13.19550494 -168.97707367 12.18543625 C-164.52500354 10.39331927 -160.00785576 8.93842088 -155.41457367 7.56043625 C-154.76859222 7.36264572 -154.12261078 7.16485519 -153.45705414 6.96107101 C-141.75231305 3.53553431 -130.22744785 1.68747435 -118.03957367 1.49793625 C-116.66146022 1.46771025 -115.28336825 1.43649379 -113.90529633 1.40443039 C-110.81881272 1.33524484 -107.73229781 1.27513613 -104.6455307 1.22010422 C-100.3092427 1.14058313 -95.97409005 1.03286358 -91.63858795 0.9188652 C-61.09471625 0.12570666 -30.55244185 0.01570874 0 0 Z M-59.42134857 66.44233322 C-62.50355711 66.47968574 -65.58577091 66.51355996 -68.66805267 66.54426193 C-83.70958133 66.69750363 -98.70640161 66.96276683 -113.71535492 68.05262375 C-114.79768402 68.13080338 -115.88001312 68.208983 -116.99514008 68.28953171 C-125.51966453 68.97639925 -133.45154537 70.44716886 -141.60207367 73.12293625 C-142.57612152 73.44004562 -142.57612152 73.44004562 -143.56984711 73.76356125 C-153.84608599 77.17410266 -163.16638363 81.85981266 -172.60207367 87.12293625 C-173.93022612 87.79986556 -175.260868 88.47225231 -176.60207367 89.12293625 C-176.60207367 89.78293625 -176.60207367 90.44293625 -176.60207367 91.12293625 C-177.31234711 91.36141281 -178.02262054 91.59988937 -178.75441742 91.8455925 C-182.06241681 93.32942762 -184.40083004 95.21951849 -187.16457367 97.56043625 C-192.48681688 102.04115973 -192.48681688 102.04115973 -194.94191742 103.7830925 C-195.48976898 104.22524094 -196.03762054 104.66738937 -196.60207367 105.12293625 C-196.60207367 105.78293625 -196.60207367 106.44293625 -196.60207367 107.12293625 C-197.59207367 107.45293625 -198.58207367 107.78293625 -199.60207367 108.12293625 C-199.60207367 108.78293625 -199.60207367 109.44293625 -199.60207367 110.12293625 C-200.26207367 110.12293625 -200.92207367 110.12293625 -201.60207367 110.12293625 C-203.64663426 112.2955828 -203.64663426 112.2955828 -205.72707367 114.99793625 C-206.45152679 115.90285812 -207.17597992 116.80778 -207.92238617 117.74012375 C-209.79412601 119.90949436 -209.79412601 119.90949436 -209.60207367 122.12293625 C-210.26207367 122.12293625 -210.92207367 122.12293625 -211.60207367 122.12293625 C-213.25061219 124.25561805 -214.7509469 126.37394356 -216.22707367 128.62293625 C-216.67075287 129.29566574 -217.11443207 129.96839523 -217.57155609 130.66151047 C-224.72136469 141.73276041 -230.36704195 153.64231275 -234.60207367 166.12293625 C-234.84066091 166.79658777 -235.07924816 167.47023929 -235.32506531 168.16430449 C-237.6487206 175.19050875 -238.34963809 181.96516606 -238.77439117 189.32905197 C-238.85416114 190.62836222 -238.93393111 191.92767247 -239.01611835 193.26635575 C-239.9505493 209.53458853 -239.87993328 225.82197 -239.84886396 242.11099267 C-239.84216248 246.81039561 -239.84726187 251.50978977 -239.85074615 256.20919418 C-239.85573782 265.36997021 -239.85021094 274.53070957 -239.84089585 283.69148102 C-239.8304102 294.39587632 -239.83058471 305.10026411 -239.83106843 315.80466357 C-239.83156691 334.92199257 -239.82246529 354.03930473 -239.80788422 373.15662766 C-239.79379328 391.6413313 -239.78671399 410.12602013 -239.7873764 428.61072922 C-239.78741636 429.75008831 -239.78745632 430.8894474 -239.78749748 432.06333253 C-239.78753784 433.20086497 -239.78757819 434.33839741 -239.78761977 435.51040053 C-239.78831226 456.65556281 -239.78240555 477.80071889 -239.77346655 498.94587915 C-239.77046988 506.38048585 -239.76938936 513.8150914 -239.76893425 521.24969864 C-239.76824713 530.32558577 -239.7637138 539.40146244 -239.75460144 548.47734514 C-239.75003299 553.09433577 -239.74691929 557.71131316 -239.74819565 562.3283062 C-241.66358677 602.88928508 -241.66358677 602.88928508 -234.85207367 642.12293625 C-234.44674408 643.27874191 -234.44674408 643.27874191 -234.03322601 644.45789719 C-233.24187272 646.68710076 -232.42739636 648.90611742 -231.60207367 651.12293625 C-230.99492523 652.77035812 -230.99492523 652.77035812 -230.37551117 654.45106125 C-227.2267389 662.46222334 -223.00801216 669.75592169 -218.60207367 677.12293625 C-218.08902679 678.00207687 -217.57597992 678.8812175 -217.04738617 679.78699875 C-215.96188202 681.60473647 -214.79259032 683.37217647 -213.60207367 685.12293625 C-212.94207367 685.12293625 -212.28207367 685.12293625 -211.60207367 685.12293625 C-210.94207367 686.77293625 -210.28207367 688.42293625 -209.60207367 690.12293625 C-208.94207367 690.12293625 -208.28207367 690.12293625 -207.60207367 690.12293625 C-207.35586273 690.68367844 -207.10965179 691.24442062 -206.85597992 691.822155 C-202.85148306 699.1699701 -196.04596264 704.91346088 -189.35207367 709.74793625 C-187.60207367 711.12293625 -187.60207367 711.12293625 -186.60207367 713.12293625 C-185.61207367 713.12293625 -184.62207367 713.12293625 -183.60207367 713.12293625 C-183.60207367 713.78293625 -183.60207367 714.44293625 -183.60207367 715.12293625 C-181.90950275 716.44937381 -181.90950275 716.44937381 -179.68410492 717.73231125 C-178.43053192 718.48919235 -178.43053192 718.48919235 -177.15163422 719.26136398 C-175.79678925 720.05909225 -175.79678925 720.05909225 -174.41457367 720.87293625 C-173.49780853 721.41571213 -172.5810434 721.95848801 -171.6364975 722.51771164 C-149.16291056 735.668307 -126.92104473 741.43960721 -101.06691742 741.853405 C-99.19348162 741.89303547 -97.32006851 741.93375129 -95.44667816 741.97547531 C-90.49437834 742.08209678 -85.54191807 742.17159016 -80.5892067 742.25666046 C-76.51062867 742.32858018 -72.43226227 742.41005734 -68.3538599 742.49124241 C-46.25148473 742.9290106 -24.14684904 743.30408581 -2.03957367 743.31043625 C-1.10177063 743.31143326 -0.16396759 743.31243027 0.80225372 743.31345749 C3.33554063 743.31314472 5.8685866 743.30460036 8.40183258 743.290905 C9.11706085 743.2896965 9.83228912 743.28848801 10.56919098 743.28724289 C13.7621156 743.51823594 13.7621156 743.51823594 16.39792633 742.12293625 C16.49548405 740.64183502 16.52315603 739.1560794 16.52327549 737.67176867 C16.52577901 736.70222099 16.52828253 735.73267331 16.53086191 734.7337454 C16.52852075 733.65372508 16.52617958 732.57370477 16.52376747 731.46095657 C16.52522091 730.32045009 16.52667435 729.1799436 16.52817184 728.00487632 C16.5312134 724.81087343 16.52971983 721.61690808 16.52639388 718.4229066 C16.52387297 714.95881213 16.52711079 711.49472248 16.52963722 708.03062868 C16.53326183 701.95001162 16.53313144 695.86940342 16.53059006 689.78878593 C16.52682124 680.74697771 16.52873417 671.70517703 16.53179836 662.66336887 C16.53707566 646.51853644 16.53660313 630.37370795 16.53371945 614.22887515 C16.53120822 600.10063064 16.53054517 585.97238759 16.5317421 571.84414291 C16.53181848 570.9085727 16.53189487 569.97300249 16.53197357 569.00908167 C16.53228488 565.21171479 16.53260328 561.41434791 16.53293333 557.61698103 C16.53599534 521.962965 16.5332141 486.30895149 16.52783643 450.65493584 C16.5230905 418.94814166 16.52351511 387.24135149 16.52829742 355.53455734 C16.53364699 319.94757065 16.53577822 284.36058619 16.53268516 248.77359915 C16.53236442 244.98297596 16.53205158 241.19235277 16.5317421 237.40172958 C16.53166302 236.46831693 16.53158394 235.53490428 16.53150247 234.5732064 C16.5303629 220.45058665 16.53169917 206.3279685 16.53422165 192.20534897 C16.5370742 176.15433605 16.53638046 160.1033277 16.53094091 144.05231535 C16.52799396 135.05873157 16.52782822 126.06515769 16.53158708 117.07157415 C16.53381769 111.07546216 16.53245539 105.07935817 16.52808231 99.08324737 C16.52568755 95.65937395 16.52492298 92.23552032 16.52848829 88.81164747 C16.53148865 85.13605074 16.52845158 81.46050965 16.52376747 77.78491592 C16.52610864 76.70489561 16.5284498 75.6248753 16.53086191 74.5121271 C16.5283584 73.54257942 16.52585488 72.57303174 16.52327549 71.57410383 C16.52320774 70.73218818 16.52313998 69.89027253 16.52307016 69.02284428 C16.60682609 67.11213515 16.60682609 67.11213515 15.39792633 66.12293625 C13.05208953 66.01948364 10.73668962 65.9835991 8.39011383 65.99012375 C7.25069839 65.98800888 7.25069839 65.98800888 6.08826447 65.98585129 C3.48310958 65.98365527 0.87806983 65.99018909 -1.72707367 65.99793625 C-2.63723236 65.99948715 -3.54739105 66.00103806 -4.48513031 66.00263596 C-22.79774953 66.03828343 -41.11013991 66.21993803 -59.42134857 66.44233322 Z " fill="#FFFFFF" transform="translate(362.6020736694336,53.8770637512207)"/>
<path d="M0 0 C5.92283616 5.21734598 11.66913231 10.93167242 15.9453125 17.609375 C15.9453125 18.599375 15.9453125 19.589375 15.9453125 20.609375 C16.6053125 20.609375 17.2653125 20.609375 17.9453125 20.609375 C18.90769286 22.64913714 19.86503777 24.69127546 20.8203125 26.734375 C21.35398437 27.87132812 21.88765625 29.00828125 22.4375 30.1796875 C30.21778055 47.87680232 30.33452879 68.47033061 23.9453125 86.609375 C19.79770304 96.70946145 13.99463208 106.16375438 5.9453125 113.609375 C4.79896223 114.79637599 3.65316758 115.98391371 2.5078125 117.171875 C-0.47473402 120.13526169 -3.42437844 122.44515229 -7.0546875 124.609375 C-8.15490234 125.30160156 -8.15490234 125.30160156 -9.27734375 126.0078125 C-22.04958426 133.59795241 -34.15392229 136.04699655 -48.8671875 136.109375 C-50.54748047 136.11880127 -50.54748047 136.11880127 -52.26171875 136.12841797 C-68.95807833 135.87492076 -83.13433989 130.12139585 -96.0546875 119.609375 C-97.5396875 118.619375 -97.5396875 118.619375 -99.0546875 117.609375 C-99.0546875 116.949375 -99.0546875 116.289375 -99.0546875 115.609375 C-99.60253906 115.4134375 -100.15039062 115.2175 -100.71484375 115.015625 C-104.05104665 113.01056149 -106.15026085 110.14971479 -108.4921875 107.109375 C-108.98009766 106.48224609 -109.46800781 105.85511719 -109.97070312 105.20898438 C-113.71584555 100.28751533 -116.56689879 95.2730642 -119.0546875 89.609375 C-119.6115625 88.64 -120.1684375 87.670625 -120.7421875 86.671875 C-124.25545569 78.47424922 -124.38714273 69.46498477 -124.3046875 60.671875 C-124.29344849 59.08765747 -124.29344849 59.08765747 -124.28198242 57.47143555 C-124.09235664 43.76435205 -122.05112293 30.1882135 -114.0546875 18.609375 C-113.3946875 18.609375 -112.7346875 18.609375 -112.0546875 18.609375 C-111.94640625 18.03445312 -111.838125 17.45953125 -111.7265625 16.8671875 C-108.37418585 5.60164272 -94.97466335 -2.34593487 -85.24731445 -7.78442383 C-57.42550494 -22.73204676 -24.95652995 -19.53119735 0 0 Z " fill="#FFFFFF" transform="translate(306.0546875,237.390625)"/>
</svg>
